<mxfile host="app.diagrams.net" modified="2020-12-29T17:19:46.448Z" agent="5.0 (Windows)" etag="JS45UAs55eaC1OgAU-o6" version="14.1.1" type="github">
  <diagram id="R2lEEEUBdFMjLlhIrx00" name="Page-1">
    <mxGraphModel dx="773" dy="864" grid="1" gridSize="10" guides="1" tooltips="1" connect="1" arrows="1" fold="1" page="1" pageScale="1" pageWidth="850" pageHeight="1100" math="0" shadow="0" extFonts="Permanent Marker^https://fonts.googleapis.com/css?family=Permanent+Marker">
      <root>
        <mxCell id="0" />
        <mxCell id="1" parent="0" />
        <mxCell id="sjoTBTvW4a24tzpeRHLb-77" style="edgeStyle=orthogonalEdgeStyle;rounded=0;orthogonalLoop=1;jettySize=auto;html=1;exitX=0.5;exitY=1;exitDx=0;exitDy=0;" parent="1" source="sjoTBTvW4a24tzpeRHLb-1" target="sjoTBTvW4a24tzpeRHLb-76" edge="1">
          <mxGeometry relative="1" as="geometry" />
        </mxCell>
        <mxCell id="sjoTBTvW4a24tzpeRHLb-1" value="Supplier" style="whiteSpace=wrap;html=1;align=center;" parent="1" vertex="1">
          <mxGeometry x="100" y="620" width="100" height="40" as="geometry" />
        </mxCell>
        <mxCell id="sjoTBTvW4a24tzpeRHLb-71" style="edgeStyle=orthogonalEdgeStyle;rounded=0;orthogonalLoop=1;jettySize=auto;html=1;exitX=0.5;exitY=1;exitDx=0;exitDy=0;" parent="1" source="sjoTBTvW4a24tzpeRHLb-2" edge="1">
          <mxGeometry relative="1" as="geometry">
            <mxPoint x="680" y="940" as="targetPoint" />
          </mxGeometry>
        </mxCell>
        <mxCell id="sjoTBTvW4a24tzpeRHLb-2" value="Costumer" style="whiteSpace=wrap;html=1;align=center;" parent="1" vertex="1">
          <mxGeometry x="630" y="630" width="100" height="40" as="geometry" />
        </mxCell>
        <mxCell id="sjoTBTvW4a24tzpeRHLb-3" value="&lt;div&gt;Factory&lt;/div&gt;" style="whiteSpace=wrap;html=1;align=center;" parent="1" vertex="1">
          <mxGeometry x="390" y="420" width="100" height="40" as="geometry" />
        </mxCell>
        <mxCell id="sjoTBTvW4a24tzpeRHLb-14" style="edgeStyle=orthogonalEdgeStyle;rounded=0;orthogonalLoop=1;jettySize=auto;html=1;exitX=0.5;exitY=1;exitDx=0;exitDy=0;" parent="1" edge="1">
          <mxGeometry relative="1" as="geometry">
            <mxPoint x="430" y="380" as="sourcePoint" />
            <mxPoint x="430" y="380" as="targetPoint" />
          </mxGeometry>
        </mxCell>
        <mxCell id="sjoTBTvW4a24tzpeRHLb-40" value="Price" style="ellipse;whiteSpace=wrap;html=1;align=center;" parent="1" vertex="1">
          <mxGeometry x="350" y="200" width="100" height="40" as="geometry" />
        </mxCell>
        <mxCell id="sjoTBTvW4a24tzpeRHLb-43" value="&lt;u&gt;Part_ID&lt;/u&gt;" style="ellipse;whiteSpace=wrap;html=1;align=center;" parent="1" vertex="1">
          <mxGeometry x="100" y="200" width="100" height="40" as="geometry" />
        </mxCell>
        <mxCell id="sjoTBTvW4a24tzpeRHLb-108" style="edgeStyle=orthogonalEdgeStyle;rounded=0;orthogonalLoop=1;jettySize=auto;html=1;entryX=0.5;entryY=1;entryDx=0;entryDy=0;" parent="1" source="sjoTBTvW4a24tzpeRHLb-49" target="sjoTBTvW4a24tzpeRHLb-50" edge="1">
          <mxGeometry relative="1" as="geometry" />
        </mxCell>
        <mxCell id="sjoTBTvW4a24tzpeRHLb-109" style="edgeStyle=orthogonalEdgeStyle;rounded=0;orthogonalLoop=1;jettySize=auto;html=1;exitX=0.5;exitY=0;exitDx=0;exitDy=0;entryX=0.5;entryY=1;entryDx=0;entryDy=0;" parent="1" source="sjoTBTvW4a24tzpeRHLb-49" target="sjoTBTvW4a24tzpeRHLb-51" edge="1">
          <mxGeometry relative="1" as="geometry" />
        </mxCell>
        <mxCell id="sjoTBTvW4a24tzpeRHLb-49" value="Name" style="ellipse;whiteSpace=wrap;html=1;align=center;" parent="1" vertex="1">
          <mxGeometry x="480" y="200" width="100" height="40" as="geometry" />
        </mxCell>
        <mxCell id="sjoTBTvW4a24tzpeRHLb-50" value="Part Name" style="ellipse;whiteSpace=wrap;html=1;align=center;" parent="1" vertex="1">
          <mxGeometry x="410" y="120" width="100" height="40" as="geometry" />
        </mxCell>
        <mxCell id="sjoTBTvW4a24tzpeRHLb-51" value="Company name" style="ellipse;whiteSpace=wrap;html=1;align=center;" parent="1" vertex="1">
          <mxGeometry x="560" y="120" width="100" height="40" as="geometry" />
        </mxCell>
        <mxCell id="sjoTBTvW4a24tzpeRHLb-55" value="Amount_In_Stock" style="ellipse;whiteSpace=wrap;html=1;align=center;" parent="1" vertex="1">
          <mxGeometry x="230" y="200" width="100" height="40" as="geometry" />
        </mxCell>
        <mxCell id="sjoTBTvW4a24tzpeRHLb-64" style="edgeStyle=orthogonalEdgeStyle;rounded=0;orthogonalLoop=1;jettySize=auto;html=1;entryX=0.5;entryY=0;entryDx=0;entryDy=0;" parent="1" source="sjoTBTvW4a24tzpeRHLb-61" target="sjoTBTvW4a24tzpeRHLb-1" edge="1">
          <mxGeometry relative="1" as="geometry" />
        </mxCell>
        <mxCell id="sjoTBTvW4a24tzpeRHLb-150" value="" style="edgeStyle=none;rounded=0;orthogonalLoop=1;jettySize=auto;html=1;" parent="1" source="sjoTBTvW4a24tzpeRHLb-61" edge="1">
          <mxGeometry relative="1" as="geometry">
            <mxPoint x="149.99999999999955" y="460" as="targetPoint" />
          </mxGeometry>
        </mxCell>
        <mxCell id="sjoTBTvW4a24tzpeRHLb-61" value="Orders From" style="shape=rhombus;perimeter=rhombusPerimeter;whiteSpace=wrap;html=1;align=center;" parent="1" vertex="1">
          <mxGeometry x="90" y="530" width="120" height="60" as="geometry" />
        </mxCell>
        <mxCell id="sjoTBTvW4a24tzpeRHLb-67" style="edgeStyle=orthogonalEdgeStyle;rounded=0;orthogonalLoop=1;jettySize=auto;html=1;entryX=0.5;entryY=0;entryDx=0;entryDy=0;" parent="1" source="sjoTBTvW4a24tzpeRHLb-65" target="sjoTBTvW4a24tzpeRHLb-2" edge="1">
          <mxGeometry relative="1" as="geometry" />
        </mxCell>
        <mxCell id="sjoTBTvW4a24tzpeRHLb-313" style="edgeStyle=orthogonalEdgeStyle;rounded=0;orthogonalLoop=1;jettySize=auto;html=1;exitX=1;exitY=0.5;exitDx=0;exitDy=0;" parent="1" source="sjoTBTvW4a24tzpeRHLb-65" target="sjoTBTvW4a24tzpeRHLb-155" edge="1">
          <mxGeometry relative="1" as="geometry" />
        </mxCell>
        <mxCell id="sjoTBTvW4a24tzpeRHLb-65" value="Sells to" style="shape=rhombus;perimeter=rhombusPerimeter;whiteSpace=wrap;html=1;align=center;" parent="1" vertex="1">
          <mxGeometry x="620" y="410" width="120" height="60" as="geometry" />
        </mxCell>
        <mxCell id="sjoTBTvW4a24tzpeRHLb-79" style="edgeStyle=orthogonalEdgeStyle;rounded=0;orthogonalLoop=1;jettySize=auto;html=1;exitX=1;exitY=0.5;exitDx=0;exitDy=0;entryX=0.5;entryY=0;entryDx=0;entryDy=0;" parent="1" source="sjoTBTvW4a24tzpeRHLb-76" target="sjoTBTvW4a24tzpeRHLb-78" edge="1">
          <mxGeometry relative="1" as="geometry" />
        </mxCell>
        <mxCell id="sjoTBTvW4a24tzpeRHLb-76" value="ISA" style="triangle;whiteSpace=wrap;html=1;rotation=90;" parent="1" vertex="1">
          <mxGeometry x="120" y="670" width="60" height="80" as="geometry" />
        </mxCell>
        <mxCell id="sjoTBTvW4a24tzpeRHLb-89" style="edgeStyle=orthogonalEdgeStyle;rounded=0;orthogonalLoop=1;jettySize=auto;html=1;exitX=1;exitY=0.5;exitDx=0;exitDy=0;entryX=0;entryY=0.5;entryDx=0;entryDy=0;" parent="1" source="sjoTBTvW4a24tzpeRHLb-78" target="sjoTBTvW4a24tzpeRHLb-88" edge="1">
          <mxGeometry relative="1" as="geometry" />
        </mxCell>
        <mxCell id="sjoTBTvW4a24tzpeRHLb-91" style="edgeStyle=orthogonalEdgeStyle;rounded=0;orthogonalLoop=1;jettySize=auto;html=1;exitX=1;exitY=0.5;exitDx=0;exitDy=0;entryX=0;entryY=0.5;entryDx=0;entryDy=0;" parent="1" source="sjoTBTvW4a24tzpeRHLb-78" target="sjoTBTvW4a24tzpeRHLb-87" edge="1">
          <mxGeometry relative="1" as="geometry" />
        </mxCell>
        <mxCell id="sjoTBTvW4a24tzpeRHLb-92" style="edgeStyle=orthogonalEdgeStyle;rounded=0;orthogonalLoop=1;jettySize=auto;html=1;exitX=1;exitY=0.5;exitDx=0;exitDy=0;entryX=0;entryY=0.5;entryDx=0;entryDy=0;" parent="1" source="sjoTBTvW4a24tzpeRHLb-78" target="sjoTBTvW4a24tzpeRHLb-80" edge="1">
          <mxGeometry relative="1" as="geometry" />
        </mxCell>
        <mxCell id="sjoTBTvW4a24tzpeRHLb-93" style="edgeStyle=orthogonalEdgeStyle;rounded=0;orthogonalLoop=1;jettySize=auto;html=1;exitX=1;exitY=0.5;exitDx=0;exitDy=0;entryX=0;entryY=0.5;entryDx=0;entryDy=0;" parent="1" source="sjoTBTvW4a24tzpeRHLb-78" target="sjoTBTvW4a24tzpeRHLb-81" edge="1">
          <mxGeometry relative="1" as="geometry" />
        </mxCell>
        <mxCell id="sjoTBTvW4a24tzpeRHLb-129" style="edgeStyle=orthogonalEdgeStyle;rounded=0;orthogonalLoop=1;jettySize=auto;html=1;exitX=1;exitY=0.5;exitDx=0;exitDy=0;entryX=0;entryY=0.5;entryDx=0;entryDy=0;" parent="1" source="sjoTBTvW4a24tzpeRHLb-78" target="sjoTBTvW4a24tzpeRHLb-128" edge="1">
          <mxGeometry relative="1" as="geometry">
            <mxPoint x="225" y="960" as="targetPoint" />
          </mxGeometry>
        </mxCell>
        <mxCell id="sjoTBTvW4a24tzpeRHLb-78" value="Company" style="whiteSpace=wrap;html=1;align=center;" parent="1" vertex="1">
          <mxGeometry x="100" y="770" width="100" height="40" as="geometry" />
        </mxCell>
        <mxCell id="sjoTBTvW4a24tzpeRHLb-80" value="Name" style="ellipse;whiteSpace=wrap;html=1;align=center;" parent="1" vertex="1">
          <mxGeometry x="250" y="830" width="100" height="40" as="geometry" />
        </mxCell>
        <mxCell id="sjoTBTvW4a24tzpeRHLb-81" value="Address" style="ellipse;whiteSpace=wrap;html=1;align=center;" parent="1" vertex="1">
          <mxGeometry x="250" y="890" width="100" height="40" as="geometry" />
        </mxCell>
        <mxCell id="sjoTBTvW4a24tzpeRHLb-119" style="edgeStyle=orthogonalEdgeStyle;rounded=0;orthogonalLoop=1;jettySize=auto;html=1;" parent="1" source="sjoTBTvW4a24tzpeRHLb-83" edge="1">
          <mxGeometry relative="1" as="geometry">
            <mxPoint x="679.9999999999995" y="790" as="targetPoint" />
          </mxGeometry>
        </mxCell>
        <mxCell id="sjoTBTvW4a24tzpeRHLb-83" value="Address" style="ellipse;whiteSpace=wrap;html=1;align=center;" parent="1" vertex="1">
          <mxGeometry x="550" y="770" width="100" height="40" as="geometry" />
        </mxCell>
        <mxCell id="sjoTBTvW4a24tzpeRHLb-87" value="Email" style="ellipse;whiteSpace=wrap;html=1;align=center;" parent="1" vertex="1">
          <mxGeometry x="250" y="770" width="100" height="40" as="geometry" />
        </mxCell>
        <mxCell id="sjoTBTvW4a24tzpeRHLb-88" value="Phone" style="ellipse;whiteSpace=wrap;html=1;align=center;" parent="1" vertex="1">
          <mxGeometry x="250" y="700" width="100" height="40" as="geometry" />
        </mxCell>
        <mxCell id="sjoTBTvW4a24tzpeRHLb-122" style="edgeStyle=orthogonalEdgeStyle;rounded=0;orthogonalLoop=1;jettySize=auto;html=1;exitX=0;exitY=0.5;exitDx=0;exitDy=0;" parent="1" source="sjoTBTvW4a24tzpeRHLb-94" edge="1">
          <mxGeometry relative="1" as="geometry">
            <mxPoint x="679.9999999999995" y="790.2352941176471" as="targetPoint" />
          </mxGeometry>
        </mxCell>
        <mxCell id="sjoTBTvW4a24tzpeRHLb-94" value="Phone" style="ellipse;whiteSpace=wrap;html=1;align=center;" parent="1" vertex="1">
          <mxGeometry x="710" y="770" width="100" height="40" as="geometry" />
        </mxCell>
        <mxCell id="sjoTBTvW4a24tzpeRHLb-120" style="edgeStyle=orthogonalEdgeStyle;rounded=0;orthogonalLoop=1;jettySize=auto;html=1;exitX=1;exitY=0.5;exitDx=0;exitDy=0;" parent="1" source="sjoTBTvW4a24tzpeRHLb-96" edge="1">
          <mxGeometry relative="1" as="geometry">
            <mxPoint x="679.9999999999995" y="859.6470588235295" as="targetPoint" />
          </mxGeometry>
        </mxCell>
        <mxCell id="sjoTBTvW4a24tzpeRHLb-96" value="Email" style="ellipse;whiteSpace=wrap;html=1;align=center;" parent="1" vertex="1">
          <mxGeometry x="550" y="840" width="100" height="40" as="geometry" />
        </mxCell>
        <mxCell id="sjoTBTvW4a24tzpeRHLb-116" value="Type" style="ellipse;shape=doubleEllipse;margin=3;whiteSpace=wrap;html=1;align=center;rounded=0;" parent="1" vertex="1">
          <mxGeometry x="610" y="200" width="100" height="40" as="geometry" />
        </mxCell>
        <mxCell id="sjoTBTvW4a24tzpeRHLb-127" style="edgeStyle=orthogonalEdgeStyle;rounded=0;orthogonalLoop=1;jettySize=auto;html=1;exitX=1;exitY=0.5;exitDx=0;exitDy=0;" parent="1" source="sjoTBTvW4a24tzpeRHLb-118" edge="1">
          <mxGeometry relative="1" as="geometry">
            <mxPoint x="679.9999999999995" y="719.6470588235295" as="targetPoint" />
          </mxGeometry>
        </mxCell>
        <mxCell id="sjoTBTvW4a24tzpeRHLb-118" value="Costumer_type" style="ellipse;shape=doubleEllipse;margin=3;whiteSpace=wrap;html=1;align=center;rounded=0;" parent="1" vertex="1">
          <mxGeometry x="560" y="700" width="100" height="40" as="geometry" />
        </mxCell>
        <mxCell id="sjoTBTvW4a24tzpeRHLb-126" style="edgeStyle=orthogonalEdgeStyle;rounded=0;orthogonalLoop=1;jettySize=auto;html=1;exitX=0;exitY=0.5;exitDx=0;exitDy=0;" parent="1" source="sjoTBTvW4a24tzpeRHLb-124" edge="1">
          <mxGeometry relative="1" as="geometry">
            <mxPoint x="679.9999999999995" y="719.6470588235295" as="targetPoint" />
          </mxGeometry>
        </mxCell>
        <mxCell id="sjoTBTvW4a24tzpeRHLb-124" value="Name" style="ellipse;whiteSpace=wrap;html=1;align=center;" parent="1" vertex="1">
          <mxGeometry x="710" y="700" width="100" height="40" as="geometry" />
        </mxCell>
        <mxCell id="sjoTBTvW4a24tzpeRHLb-128" value="&lt;u&gt;Company_ID&lt;/u&gt;" style="ellipse;whiteSpace=wrap;html=1;align=center;" parent="1" vertex="1">
          <mxGeometry x="250" y="940" width="100" height="40" as="geometry" />
        </mxCell>
        <mxCell id="sjoTBTvW4a24tzpeRHLb-131" style="edgeStyle=orthogonalEdgeStyle;rounded=0;orthogonalLoop=1;jettySize=auto;html=1;exitX=1;exitY=0.5;exitDx=0;exitDy=0;" parent="1" source="sjoTBTvW4a24tzpeRHLb-130" edge="1">
          <mxGeometry relative="1" as="geometry">
            <mxPoint x="679.9999999999995" y="919.6470588235295" as="targetPoint" />
          </mxGeometry>
        </mxCell>
        <mxCell id="sjoTBTvW4a24tzpeRHLb-130" value="&lt;u&gt;Costumer_ID&lt;br&gt;&lt;/u&gt;" style="ellipse;whiteSpace=wrap;html=1;align=center;" parent="1" vertex="1">
          <mxGeometry x="550" y="900" width="100" height="40" as="geometry" />
        </mxCell>
        <mxCell id="sjoTBTvW4a24tzpeRHLb-132" value="" style="edgeStyle=entityRelationEdgeStyle;fontSize=12;html=1;endArrow=ERzeroToMany;startArrow=ERmandOne;entryX=1;entryY=0.5;entryDx=0;entryDy=0;exitX=0;exitY=0.5;exitDx=0;exitDy=0;" parent="1" source="sjoTBTvW4a24tzpeRHLb-3" target="sjoTBTvW4a24tzpeRHLb-61" edge="1">
          <mxGeometry width="100" height="100" relative="1" as="geometry">
            <mxPoint x="240" y="670" as="sourcePoint" />
            <mxPoint x="340" y="570" as="targetPoint" />
          </mxGeometry>
        </mxCell>
        <mxCell id="sjoTBTvW4a24tzpeRHLb-133" value="" style="edgeStyle=entityRelationEdgeStyle;fontSize=12;html=1;endArrow=ERzeroToMany;startArrow=ERmandOne;entryX=0;entryY=0.5;entryDx=0;entryDy=0;exitX=1;exitY=0.5;exitDx=0;exitDy=0;" parent="1" source="sjoTBTvW4a24tzpeRHLb-3" target="sjoTBTvW4a24tzpeRHLb-65" edge="1">
          <mxGeometry width="100" height="100" relative="1" as="geometry">
            <mxPoint x="669.9999999999995" y="500" as="sourcePoint" />
            <mxPoint x="499.99999999999955" y="500" as="targetPoint" />
          </mxGeometry>
        </mxCell>
        <mxCell id="sjoTBTvW4a24tzpeRHLb-141" value="" style="edgeStyle=orthogonalEdgeStyle;fontSize=12;html=1;endArrow=ERmandOne;entryX=0.5;entryY=1;entryDx=0;entryDy=0;exitX=0.5;exitY=0;exitDx=0;exitDy=0;" parent="1" target="sjoTBTvW4a24tzpeRHLb-40" edge="1">
          <mxGeometry width="100" height="100" relative="1" as="geometry">
            <mxPoint x="430" y="340" as="sourcePoint" />
            <mxPoint x="320" y="310" as="targetPoint" />
          </mxGeometry>
        </mxCell>
        <mxCell id="sjoTBTvW4a24tzpeRHLb-142" value="" style="edgeStyle=orthogonalEdgeStyle;fontSize=12;html=1;endArrow=ERmandOne;exitX=0.5;exitY=0;exitDx=0;exitDy=0;entryX=0.5;entryY=1;entryDx=0;entryDy=0;" parent="1" source="sjoTBTvW4a24tzpeRHLb-3" target="sjoTBTvW4a24tzpeRHLb-49" edge="1">
          <mxGeometry width="100" height="100" relative="1" as="geometry">
            <mxPoint x="430" y="340" as="sourcePoint" />
            <mxPoint x="530" y="230" as="targetPoint" />
          </mxGeometry>
        </mxCell>
        <mxCell id="sjoTBTvW4a24tzpeRHLb-143" value="" style="edgeStyle=orthogonalEdgeStyle;fontSize=12;html=1;endArrow=ERzeroToMany;endFill=1;entryX=0.5;entryY=1;entryDx=0;entryDy=0;exitX=0.25;exitY=0;exitDx=0;exitDy=0;" parent="1" source="sjoTBTvW4a24tzpeRHLb-3" target="sjoTBTvW4a24tzpeRHLb-55" edge="1">
          <mxGeometry width="100" height="100" relative="1" as="geometry">
            <mxPoint x="430" y="340" as="sourcePoint" />
            <mxPoint x="300" y="340" as="targetPoint" />
          </mxGeometry>
        </mxCell>
        <mxCell id="sjoTBTvW4a24tzpeRHLb-144" value="" style="edgeStyle=orthogonalEdgeStyle;fontSize=12;html=1;endArrow=ERmandOne;entryX=0.5;entryY=1;entryDx=0;entryDy=0;exitX=0.5;exitY=0;exitDx=0;exitDy=0;" parent="1" target="sjoTBTvW4a24tzpeRHLb-43" edge="1">
          <mxGeometry width="100" height="100" relative="1" as="geometry">
            <mxPoint x="430" y="340" as="sourcePoint" />
            <mxPoint x="610" y="430" as="targetPoint" />
            <Array as="points">
              <mxPoint x="340" y="340" />
              <mxPoint x="340" y="370" />
              <mxPoint x="150" y="370" />
            </Array>
          </mxGeometry>
        </mxCell>
        <mxCell id="sjoTBTvW4a24tzpeRHLb-145" value="" style="edgeStyle=orthogonalEdgeStyle;fontSize=12;html=1;endArrow=ERzeroToMany;startArrow=ERmandOne;entryX=0.5;entryY=1;entryDx=0;entryDy=0;exitX=0.75;exitY=0;exitDx=0;exitDy=0;" parent="1" source="sjoTBTvW4a24tzpeRHLb-3" target="sjoTBTvW4a24tzpeRHLb-116" edge="1">
          <mxGeometry width="100" height="100" relative="1" as="geometry">
            <mxPoint x="430" y="340" as="sourcePoint" />
            <mxPoint x="670" y="350" as="targetPoint" />
          </mxGeometry>
        </mxCell>
        <object label="&lt;span style=&quot;border-bottom: 1px dotted&quot;&gt;Order_Number&lt;/span&gt;" id="sjoTBTvW4a24tzpeRHLb-154">
          <mxCell style="ellipse;whiteSpace=wrap;html=1;align=center;rounded=0;" parent="1" vertex="1">
            <mxGeometry x="100" y="420" width="100" height="40" as="geometry" />
          </mxCell>
        </object>
        <object label="&lt;span style=&quot;border-bottom: 1px dotted&quot;&gt;Order_Number&lt;/span&gt;" id="sjoTBTvW4a24tzpeRHLb-155">
          <mxCell style="ellipse;whiteSpace=wrap;html=1;align=center;rounded=0;" parent="1" vertex="1">
            <mxGeometry x="740" y="580" width="100" height="40" as="geometry" />
          </mxCell>
        </object>
        <mxCell id="sjoTBTvW4a24tzpeRHLb-162" value="person " style="whiteSpace=wrap;html=1;align=center;" parent="1" vertex="1">
          <mxGeometry x="1265" y="440" width="100" height="40" as="geometry" />
        </mxCell>
        <mxCell id="sjoTBTvW4a24tzpeRHLb-300" style="edgeStyle=orthogonalEdgeStyle;rounded=0;orthogonalLoop=1;jettySize=auto;html=1;" parent="1" source="sjoTBTvW4a24tzpeRHLb-172" edge="1">
          <mxGeometry relative="1" as="geometry">
            <mxPoint x="1315" y="130" as="targetPoint" />
          </mxGeometry>
        </mxCell>
        <mxCell id="sjoTBTvW4a24tzpeRHLb-172" value="Personal" style="whiteSpace=wrap;html=1;align=center;" parent="1" vertex="1">
          <mxGeometry x="1265" y="440" width="100" height="40" as="geometry" />
        </mxCell>
        <mxCell id="sjoTBTvW4a24tzpeRHLb-310" style="edgeStyle=orthogonalEdgeStyle;rounded=0;orthogonalLoop=1;jettySize=auto;html=1;" parent="1" source="sjoTBTvW4a24tzpeRHLb-175" edge="1">
          <mxGeometry relative="1" as="geometry">
            <mxPoint x="1310" y="350" as="targetPoint" />
          </mxGeometry>
        </mxCell>
        <mxCell id="sjoTBTvW4a24tzpeRHLb-175" value="Personal_id" style="ellipse;whiteSpace=wrap;html=1;align=center;" parent="1" vertex="1">
          <mxGeometry x="1410" y="330" width="100" height="40" as="geometry" />
        </mxCell>
        <mxCell id="sjoTBTvW4a24tzpeRHLb-176" value="First Name" style="ellipse;whiteSpace=wrap;html=1;align=center;" parent="1" vertex="1">
          <mxGeometry x="1510" y="440" width="100" height="40" as="geometry" />
        </mxCell>
        <mxCell id="sjoTBTvW4a24tzpeRHLb-297" style="edgeStyle=orthogonalEdgeStyle;rounded=0;orthogonalLoop=1;jettySize=auto;html=1;exitX=1;exitY=0.5;exitDx=0;exitDy=0;entryX=0.5;entryY=1;entryDx=0;entryDy=0;" parent="1" source="sjoTBTvW4a24tzpeRHLb-179" target="sjoTBTvW4a24tzpeRHLb-180" edge="1">
          <mxGeometry relative="1" as="geometry" />
        </mxCell>
        <mxCell id="sjoTBTvW4a24tzpeRHLb-299" style="edgeStyle=orthogonalEdgeStyle;rounded=0;orthogonalLoop=1;jettySize=auto;html=1;exitX=1;exitY=0.5;exitDx=0;exitDy=0;entryX=0.5;entryY=0;entryDx=0;entryDy=0;" parent="1" source="sjoTBTvW4a24tzpeRHLb-179" target="sjoTBTvW4a24tzpeRHLb-176" edge="1">
          <mxGeometry relative="1" as="geometry" />
        </mxCell>
        <mxCell id="sjoTBTvW4a24tzpeRHLb-311" style="edgeStyle=orthogonalEdgeStyle;rounded=0;orthogonalLoop=1;jettySize=auto;html=1;" parent="1" source="sjoTBTvW4a24tzpeRHLb-179" edge="1">
          <mxGeometry relative="1" as="geometry">
            <mxPoint x="1310" y="420" as="targetPoint" />
          </mxGeometry>
        </mxCell>
        <mxCell id="sjoTBTvW4a24tzpeRHLb-179" value="Name" style="ellipse;whiteSpace=wrap;html=1;align=center;" parent="1" vertex="1">
          <mxGeometry x="1410" y="400" width="100" height="40" as="geometry" />
        </mxCell>
        <mxCell id="sjoTBTvW4a24tzpeRHLb-180" value="Last Name" style="ellipse;whiteSpace=wrap;html=1;align=center;" parent="1" vertex="1">
          <mxGeometry x="1510" y="360" width="100" height="40" as="geometry" />
        </mxCell>
        <mxCell id="sjoTBTvW4a24tzpeRHLb-308" style="edgeStyle=orthogonalEdgeStyle;rounded=0;orthogonalLoop=1;jettySize=auto;html=1;" parent="1" source="sjoTBTvW4a24tzpeRHLb-181" edge="1">
          <mxGeometry relative="1" as="geometry">
            <mxPoint x="1310" y="220.0000000000001" as="targetPoint" />
          </mxGeometry>
        </mxCell>
        <mxCell id="sjoTBTvW4a24tzpeRHLb-181" value="Date Of Birth" style="ellipse;whiteSpace=wrap;html=1;align=center;" parent="1" vertex="1">
          <mxGeometry x="1410" y="200" width="100" height="40" as="geometry" />
        </mxCell>
        <mxCell id="sjoTBTvW4a24tzpeRHLb-301" style="edgeStyle=orthogonalEdgeStyle;rounded=0;orthogonalLoop=1;jettySize=auto;html=1;entryX=1;entryY=0.5;entryDx=0;entryDy=0;" parent="1" source="sjoTBTvW4a24tzpeRHLb-186" target="sjoTBTvW4a24tzpeRHLb-192" edge="1">
          <mxGeometry relative="1" as="geometry" />
        </mxCell>
        <mxCell id="sjoTBTvW4a24tzpeRHLb-302" style="edgeStyle=orthogonalEdgeStyle;rounded=0;orthogonalLoop=1;jettySize=auto;html=1;exitX=0;exitY=0.5;exitDx=0;exitDy=0;entryX=1;entryY=0.5;entryDx=0;entryDy=0;" parent="1" source="sjoTBTvW4a24tzpeRHLb-186" target="sjoTBTvW4a24tzpeRHLb-188" edge="1">
          <mxGeometry relative="1" as="geometry" />
        </mxCell>
        <mxCell id="sjoTBTvW4a24tzpeRHLb-303" style="edgeStyle=orthogonalEdgeStyle;rounded=0;orthogonalLoop=1;jettySize=auto;html=1;exitX=0;exitY=0.5;exitDx=0;exitDy=0;entryX=1;entryY=0.5;entryDx=0;entryDy=0;" parent="1" source="sjoTBTvW4a24tzpeRHLb-186" target="sjoTBTvW4a24tzpeRHLb-190" edge="1">
          <mxGeometry relative="1" as="geometry" />
        </mxCell>
        <mxCell id="sjoTBTvW4a24tzpeRHLb-305" style="edgeStyle=orthogonalEdgeStyle;rounded=0;orthogonalLoop=1;jettySize=auto;html=1;" parent="1" source="sjoTBTvW4a24tzpeRHLb-186" edge="1">
          <mxGeometry relative="1" as="geometry">
            <mxPoint x="1320" y="300" as="targetPoint" />
          </mxGeometry>
        </mxCell>
        <mxCell id="sjoTBTvW4a24tzpeRHLb-186" value="Address" style="ellipse;whiteSpace=wrap;html=1;align=center;" parent="1" vertex="1">
          <mxGeometry x="1155" y="280" width="100" height="40" as="geometry" />
        </mxCell>
        <mxCell id="sjoTBTvW4a24tzpeRHLb-188" value="Street" style="ellipse;whiteSpace=wrap;html=1;align=center;" parent="1" vertex="1">
          <mxGeometry x="1010" y="330" width="100" height="40" as="geometry" />
        </mxCell>
        <mxCell id="sjoTBTvW4a24tzpeRHLb-190" value="Street_Number" style="ellipse;whiteSpace=wrap;html=1;align=center;" parent="1" vertex="1">
          <mxGeometry x="1010" y="230" width="100" height="40" as="geometry" />
        </mxCell>
        <mxCell id="sjoTBTvW4a24tzpeRHLb-192" value="City" style="ellipse;whiteSpace=wrap;html=1;align=center;" parent="1" vertex="1">
          <mxGeometry x="1010" y="280" width="100" height="40" as="geometry" />
        </mxCell>
        <mxCell id="sjoTBTvW4a24tzpeRHLb-304" style="edgeStyle=orthogonalEdgeStyle;rounded=0;orthogonalLoop=1;jettySize=auto;html=1;" parent="1" source="sjoTBTvW4a24tzpeRHLb-194" edge="1">
          <mxGeometry relative="1" as="geometry">
            <mxPoint x="1320" y="400" as="targetPoint" />
          </mxGeometry>
        </mxCell>
        <mxCell id="sjoTBTvW4a24tzpeRHLb-194" value="Email" style="ellipse;whiteSpace=wrap;html=1;align=center;" parent="1" vertex="1">
          <mxGeometry x="1150" y="380" width="100" height="40" as="geometry" />
        </mxCell>
        <mxCell id="sjoTBTvW4a24tzpeRHLb-307" style="edgeStyle=orthogonalEdgeStyle;rounded=0;orthogonalLoop=1;jettySize=auto;html=1;" parent="1" source="sjoTBTvW4a24tzpeRHLb-195" edge="1">
          <mxGeometry relative="1" as="geometry">
            <mxPoint x="1310" y="160.0000000000001" as="targetPoint" />
          </mxGeometry>
        </mxCell>
        <mxCell id="sjoTBTvW4a24tzpeRHLb-195" value="Phone Number" style="ellipse;whiteSpace=wrap;html=1;align=center;" parent="1" vertex="1">
          <mxGeometry x="1410" y="140" width="100" height="40" as="geometry" />
        </mxCell>
        <mxCell id="sjoTBTvW4a24tzpeRHLb-306" style="edgeStyle=orthogonalEdgeStyle;rounded=0;orthogonalLoop=1;jettySize=auto;html=1;" parent="1" source="sjoTBTvW4a24tzpeRHLb-205" edge="1">
          <mxGeometry relative="1" as="geometry">
            <mxPoint x="1320" y="190.0000000000001" as="targetPoint" />
          </mxGeometry>
        </mxCell>
        <mxCell id="sjoTBTvW4a24tzpeRHLb-205" value="Salary" style="ellipse;whiteSpace=wrap;html=1;align=center;" parent="1" vertex="1">
          <mxGeometry x="1155" y="170" width="100" height="40" as="geometry" />
        </mxCell>
        <mxCell id="sjoTBTvW4a24tzpeRHLb-254" style="edgeStyle=orthogonalEdgeStyle;rounded=0;orthogonalLoop=1;jettySize=auto;html=1;entryX=0.5;entryY=0;entryDx=0;entryDy=0;" parent="1" source="sjoTBTvW4a24tzpeRHLb-232" target="sjoTBTvW4a24tzpeRHLb-242" edge="1">
          <mxGeometry relative="1" as="geometry" />
        </mxCell>
        <mxCell id="sjoTBTvW4a24tzpeRHLb-232" value="Works in" style="shape=rhombus;perimeter=rhombusPerimeter;whiteSpace=wrap;html=1;align=center;rounded=0;" parent="1" vertex="1">
          <mxGeometry x="1255" y="550" width="120" height="60" as="geometry" />
        </mxCell>
        <mxCell id="sjoTBTvW4a24tzpeRHLb-289" style="edgeStyle=orthogonalEdgeStyle;rounded=0;orthogonalLoop=1;jettySize=auto;html=1;exitX=0.5;exitY=1;exitDx=0;exitDy=0;" parent="1" source="sjoTBTvW4a24tzpeRHLb-242" edge="1">
          <mxGeometry relative="1" as="geometry">
            <mxPoint x="1315" y="890" as="targetPoint" />
          </mxGeometry>
        </mxCell>
        <mxCell id="sjoTBTvW4a24tzpeRHLb-242" value="Department" style="whiteSpace=wrap;html=1;align=center;" parent="1" vertex="1">
          <mxGeometry x="1265" y="660" width="100" height="40" as="geometry" />
        </mxCell>
        <mxCell id="sjoTBTvW4a24tzpeRHLb-293" style="edgeStyle=orthogonalEdgeStyle;rounded=0;orthogonalLoop=1;jettySize=auto;html=1;" parent="1" source="sjoTBTvW4a24tzpeRHLb-244" edge="1">
          <mxGeometry relative="1" as="geometry">
            <mxPoint x="1320" y="740" as="targetPoint" />
          </mxGeometry>
        </mxCell>
        <mxCell id="sjoTBTvW4a24tzpeRHLb-244" value="&lt;u&gt;&lt;span style=&quot;font-size: 11pt ; line-height: 107% ; font-family: &amp;#34;calibri&amp;#34; , sans-serif&quot;&gt;Department&lt;/span&gt;&amp;nbsp;ID&lt;/u&gt;" style="ellipse;whiteSpace=wrap;html=1;align=center;" parent="1" vertex="1">
          <mxGeometry x="1175" y="720" width="100" height="40" as="geometry" />
        </mxCell>
        <mxCell id="sjoTBTvW4a24tzpeRHLb-291" style="edgeStyle=orthogonalEdgeStyle;rounded=0;orthogonalLoop=1;jettySize=auto;html=1;" parent="1" source="sjoTBTvW4a24tzpeRHLb-246" edge="1">
          <mxGeometry relative="1" as="geometry">
            <mxPoint x="1320" y="810" as="targetPoint" />
          </mxGeometry>
        </mxCell>
        <mxCell id="sjoTBTvW4a24tzpeRHLb-246" value="&lt;span style=&quot;font-size: 11pt ; line-height: 107% ; font-family: &amp;#34;calibri&amp;#34; , sans-serif&quot;&gt;Department&lt;/span&gt;&amp;nbsp;&lt;br&gt;Name" style="ellipse;whiteSpace=wrap;html=1;align=center;" parent="1" vertex="1">
          <mxGeometry x="1170" y="790" width="105" height="40" as="geometry" />
        </mxCell>
        <mxCell id="sjoTBTvW4a24tzpeRHLb-290" style="edgeStyle=orthogonalEdgeStyle;rounded=0;orthogonalLoop=1;jettySize=auto;html=1;" parent="1" source="sjoTBTvW4a24tzpeRHLb-247" edge="1">
          <mxGeometry relative="1" as="geometry">
            <mxPoint x="1320" y="860" as="targetPoint" />
          </mxGeometry>
        </mxCell>
        <mxCell id="sjoTBTvW4a24tzpeRHLb-247" value="Department&lt;br&gt;Types" style="ellipse;shape=doubleEllipse;margin=3;whiteSpace=wrap;html=1;align=center;rounded=0;" parent="1" vertex="1">
          <mxGeometry x="1170" y="840" width="110" height="40" as="geometry" />
        </mxCell>
        <mxCell id="sjoTBTvW4a24tzpeRHLb-264" value="" style="fontSize=12;html=1;endArrow=ERmandOne;startArrow=ERmandOne;entryX=0.5;entryY=1;entryDx=0;entryDy=0;exitX=0.5;exitY=0;exitDx=0;exitDy=0;" parent="1" source="sjoTBTvW4a24tzpeRHLb-232" target="sjoTBTvW4a24tzpeRHLb-172" edge="1">
          <mxGeometry width="100" height="100" relative="1" as="geometry">
            <mxPoint x="1315" y="560" as="sourcePoint" />
            <mxPoint x="1260" y="500" as="targetPoint" />
          </mxGeometry>
        </mxCell>
        <mxCell id="sjoTBTvW4a24tzpeRHLb-309" style="edgeStyle=orthogonalEdgeStyle;rounded=0;orthogonalLoop=1;jettySize=auto;html=1;" parent="1" source="sjoTBTvW4a24tzpeRHLb-283" edge="1">
          <mxGeometry relative="1" as="geometry">
            <mxPoint x="1310" y="280" as="targetPoint" />
          </mxGeometry>
        </mxCell>
        <mxCell id="sjoTBTvW4a24tzpeRHLb-283" value="Personal_type" style="ellipse;shape=doubleEllipse;margin=3;whiteSpace=wrap;html=1;align=center;rounded=0;" parent="1" vertex="1">
          <mxGeometry x="1410" y="260" width="100" height="40" as="geometry" />
        </mxCell>
        <mxCell id="JuspxlSwPI0V3_bFnfiE-3" style="edgeStyle=orthogonalEdgeStyle;rounded=0;orthogonalLoop=1;jettySize=auto;html=1;exitX=1;exitY=0.5;exitDx=0;exitDy=0;entryX=0;entryY=0.5;entryDx=0;entryDy=0;" edge="1" parent="1" source="sjoTBTvW4a24tzpeRHLb-316" target="sjoTBTvW4a24tzpeRHLb-242">
          <mxGeometry relative="1" as="geometry">
            <Array as="points">
              <mxPoint x="830" y="400" />
              <mxPoint x="1048" y="400" />
              <mxPoint x="1048" y="680" />
            </Array>
          </mxGeometry>
        </mxCell>
        <mxCell id="JuspxlSwPI0V3_bFnfiE-5" style="edgeStyle=orthogonalEdgeStyle;rounded=0;orthogonalLoop=1;jettySize=auto;html=1;entryX=1;entryY=0.25;entryDx=0;entryDy=0;" edge="1" parent="1" source="sjoTBTvW4a24tzpeRHLb-316" target="sjoTBTvW4a24tzpeRHLb-3">
          <mxGeometry relative="1" as="geometry">
            <Array as="points">
              <mxPoint x="500" y="380" />
              <mxPoint x="500" y="430" />
            </Array>
          </mxGeometry>
        </mxCell>
        <mxCell id="sjoTBTvW4a24tzpeRHLb-316" value="Built of" style="shape=rhombus;perimeter=rhombusPerimeter;whiteSpace=wrap;html=1;align=center;rounded=0;" parent="1" vertex="1">
          <mxGeometry x="790" y="370" width="120" height="60" as="geometry" />
        </mxCell>
      </root>
    </mxGraphModel>
  </diagram>
</mxfile>
